<mxfile host="app.diagrams.net" agent="Mozilla/5.0 (Windows NT 10.0; Win64; x64) AppleWebKit/537.36 (KHTML, like Gecko) Chrome/135.0.0.0 Safari/537.36" version="27.0.1">
  <diagram name="第 1 页" id="HURRPtqu3Q-pR4nMWXQn">
    <mxGraphModel dx="1665" dy="777" grid="1" gridSize="10" guides="1" tooltips="1" connect="1" arrows="1" fold="1" page="1" pageScale="1" pageWidth="827" pageHeight="1169" math="0" shadow="0">
      <root>
        <mxCell id="0" />
        <mxCell id="1" parent="0" />
        <mxCell id="-S6qMChALhRkJrn8Ejqu-1" value="" style="edgeStyle=orthogonalEdgeStyle;rounded=0;orthogonalLoop=1;jettySize=auto;html=1;fontStyle=1" edge="1" parent="1" source="-S6qMChALhRkJrn8Ejqu-2">
          <mxGeometry relative="1" as="geometry">
            <mxPoint x="297" y="1320" as="targetPoint" />
          </mxGeometry>
        </mxCell>
        <mxCell id="-S6qMChALhRkJrn8Ejqu-2" value="flo-od&lt;div&gt;模型&lt;/div&gt;" style="rounded=0;whiteSpace=wrap;html=1;fillColor=#E6D0DE;fontStyle=1" vertex="1" parent="1">
          <mxGeometry x="237" y="1190" width="120" height="60" as="geometry" />
        </mxCell>
        <mxCell id="-S6qMChALhRkJrn8Ejqu-3" value="" style="edgeStyle=orthogonalEdgeStyle;rounded=0;orthogonalLoop=1;jettySize=auto;html=1;fontStyle=1" edge="1" parent="1" source="-S6qMChALhRkJrn8Ejqu-4" target="-S6qMChALhRkJrn8Ejqu-22">
          <mxGeometry relative="1" as="geometry" />
        </mxCell>
        <mxCell id="-S6qMChALhRkJrn8Ejqu-4" value="yolo-od&lt;div&gt;模型1&lt;/div&gt;" style="rounded=0;whiteSpace=wrap;html=1;fillColor=#E6D0DE;fontStyle=1" vertex="1" parent="1">
          <mxGeometry x="505" y="1190" width="120" height="60" as="geometry" />
        </mxCell>
        <mxCell id="-S6qMChALhRkJrn8Ejqu-5" style="edgeStyle=orthogonalEdgeStyle;rounded=0;orthogonalLoop=1;jettySize=auto;html=1;exitX=0.5;exitY=1;exitDx=0;exitDy=0;entryX=0.5;entryY=0;entryDx=0;entryDy=0;fontStyle=1" edge="1" parent="1" source="-S6qMChALhRkJrn8Ejqu-6" target="-S6qMChALhRkJrn8Ejqu-27">
          <mxGeometry relative="1" as="geometry" />
        </mxCell>
        <mxCell id="-S6qMChALhRkJrn8Ejqu-6" value="yolox-od&lt;div&gt;模型2&lt;/div&gt;" style="rounded=0;whiteSpace=wrap;html=1;fillColor=#E6D0DE;fontStyle=1" vertex="1" parent="1">
          <mxGeometry x="705" y="1190" width="120" height="60" as="geometry" />
        </mxCell>
        <mxCell id="-S6qMChALhRkJrn8Ejqu-7" value="" style="edgeStyle=orthogonalEdgeStyle;rounded=0;orthogonalLoop=1;jettySize=auto;html=1;fontStyle=1" edge="1" parent="1" source="-S6qMChALhRkJrn8Ejqu-11" target="-S6qMChALhRkJrn8Ejqu-14">
          <mxGeometry relative="1" as="geometry" />
        </mxCell>
        <mxCell id="-S6qMChALhRkJrn8Ejqu-8" value="是" style="edgeLabel;html=1;align=center;verticalAlign=middle;resizable=0;points=[];" vertex="1" connectable="0" parent="-S6qMChALhRkJrn8Ejqu-7">
          <mxGeometry x="-0.101" relative="1" as="geometry">
            <mxPoint as="offset" />
          </mxGeometry>
        </mxCell>
        <mxCell id="-S6qMChALhRkJrn8Ejqu-9" style="edgeStyle=orthogonalEdgeStyle;rounded=0;orthogonalLoop=1;jettySize=auto;html=1;fontStyle=1" edge="1" parent="1" source="-S6qMChALhRkJrn8Ejqu-11">
          <mxGeometry relative="1" as="geometry">
            <mxPoint x="297" y="1480" as="targetPoint" />
          </mxGeometry>
        </mxCell>
        <mxCell id="-S6qMChALhRkJrn8Ejqu-10" value="否" style="edgeLabel;html=1;align=center;verticalAlign=middle;resizable=0;points=[];" vertex="1" connectable="0" parent="-S6qMChALhRkJrn8Ejqu-9">
          <mxGeometry x="-0.2076" y="4" relative="1" as="geometry">
            <mxPoint as="offset" />
          </mxGeometry>
        </mxCell>
        <mxCell id="-S6qMChALhRkJrn8Ejqu-11" value="是否&lt;div&gt;室内场景&lt;/div&gt;" style="rhombus;whiteSpace=wrap;html=1;fontStyle=1" vertex="1" parent="1">
          <mxGeometry x="257" y="1320" width="80" height="80" as="geometry" />
        </mxCell>
        <mxCell id="-S6qMChALhRkJrn8Ejqu-12" style="edgeStyle=orthogonalEdgeStyle;rounded=0;orthogonalLoop=1;jettySize=auto;html=1;exitX=0.5;exitY=1;exitDx=0;exitDy=0;entryX=0;entryY=0.5;entryDx=0;entryDy=0;fontStyle=1" edge="1" parent="1" source="-S6qMChALhRkJrn8Ejqu-14" target="-S6qMChALhRkJrn8Ejqu-16">
          <mxGeometry relative="1" as="geometry" />
        </mxCell>
        <mxCell id="-S6qMChALhRkJrn8Ejqu-13" value="补充人脸和行人" style="edgeLabel;html=1;align=center;verticalAlign=middle;resizable=0;points=[];" vertex="1" connectable="0" parent="-S6qMChALhRkJrn8Ejqu-12">
          <mxGeometry x="-0.2776" y="2" relative="1" as="geometry">
            <mxPoint as="offset" />
          </mxGeometry>
        </mxCell>
        <mxCell id="-S6qMChALhRkJrn8Ejqu-14" value="flo-base模型" style="rounded=0;whiteSpace=wrap;html=1;fillColor=#E6D0DE;fontStyle=1" vertex="1" parent="1">
          <mxGeometry x="70" y="1330" width="120" height="60" as="geometry" />
        </mxCell>
        <mxCell id="-S6qMChALhRkJrn8Ejqu-15" style="edgeStyle=orthogonalEdgeStyle;rounded=0;orthogonalLoop=1;jettySize=auto;html=1;exitX=0.5;exitY=1;exitDx=0;exitDy=0;entryX=0.5;entryY=0;entryDx=0;entryDy=0;fontStyle=1" edge="1" parent="1" source="-S6qMChALhRkJrn8Ejqu-16" target="-S6qMChALhRkJrn8Ejqu-37">
          <mxGeometry relative="1" as="geometry" />
        </mxCell>
        <mxCell id="-S6qMChALhRkJrn8Ejqu-16" value="检测结果" style="rounded=0;whiteSpace=wrap;html=1;fontStyle=1" vertex="1" parent="1">
          <mxGeometry x="240" y="1480" width="120" height="60" as="geometry" />
        </mxCell>
        <mxCell id="-S6qMChALhRkJrn8Ejqu-17" style="edgeStyle=orthogonalEdgeStyle;rounded=0;orthogonalLoop=1;jettySize=auto;html=1;exitX=0.5;exitY=1;exitDx=0;exitDy=0;entryX=0.5;entryY=0;entryDx=0;entryDy=0;fontStyle=1" edge="1" parent="1" source="-S6qMChALhRkJrn8Ejqu-18" target="-S6qMChALhRkJrn8Ejqu-39">
          <mxGeometry relative="1" as="geometry" />
        </mxCell>
        <mxCell id="-S6qMChALhRkJrn8Ejqu-18" value="检测结果" style="rounded=0;whiteSpace=wrap;html=1;fontStyle=1" vertex="1" parent="1">
          <mxGeometry x="505" y="1480" width="120" height="60" as="geometry" />
        </mxCell>
        <mxCell id="-S6qMChALhRkJrn8Ejqu-19" value="" style="edgeStyle=orthogonalEdgeStyle;rounded=0;orthogonalLoop=1;jettySize=auto;html=1;fontStyle=1" edge="1" parent="1" source="-S6qMChALhRkJrn8Ejqu-22" target="-S6qMChALhRkJrn8Ejqu-24">
          <mxGeometry relative="1" as="geometry" />
        </mxCell>
        <mxCell id="-S6qMChALhRkJrn8Ejqu-20" value="" style="edgeStyle=orthogonalEdgeStyle;rounded=0;orthogonalLoop=1;jettySize=auto;html=1;fontStyle=1" edge="1" parent="1" source="-S6qMChALhRkJrn8Ejqu-22" target="-S6qMChALhRkJrn8Ejqu-18">
          <mxGeometry relative="1" as="geometry" />
        </mxCell>
        <mxCell id="-S6qMChALhRkJrn8Ejqu-21" value="否" style="edgeLabel;html=1;align=center;verticalAlign=middle;resizable=0;points=[];" vertex="1" connectable="0" parent="-S6qMChALhRkJrn8Ejqu-20">
          <mxGeometry x="-0.0265" y="-2" relative="1" as="geometry">
            <mxPoint as="offset" />
          </mxGeometry>
        </mxCell>
        <mxCell id="-S6qMChALhRkJrn8Ejqu-22" value="是否&lt;div&gt;室内场景&lt;/div&gt;" style="rhombus;whiteSpace=wrap;html=1;fontStyle=1" vertex="1" parent="1">
          <mxGeometry x="525" y="1320" width="80" height="80" as="geometry" />
        </mxCell>
        <mxCell id="-S6qMChALhRkJrn8Ejqu-23" style="edgeStyle=orthogonalEdgeStyle;rounded=0;orthogonalLoop=1;jettySize=auto;html=1;exitX=0.5;exitY=1;exitDx=0;exitDy=0;entryX=0;entryY=0.5;entryDx=0;entryDy=0;fontStyle=1" edge="1" parent="1" source="-S6qMChALhRkJrn8Ejqu-24" target="-S6qMChALhRkJrn8Ejqu-18">
          <mxGeometry relative="1" as="geometry" />
        </mxCell>
        <mxCell id="-S6qMChALhRkJrn8Ejqu-24" value="yolo-face+&lt;div&gt;yolo-person模型&lt;/div&gt;" style="rounded=0;whiteSpace=wrap;html=1;fillColor=#E6D0DE;fontStyle=1" vertex="1" parent="1">
          <mxGeometry x="370" y="1330" width="120" height="60" as="geometry" />
        </mxCell>
        <mxCell id="-S6qMChALhRkJrn8Ejqu-25" value="卡口+室内（不包含复杂室外视频点位）" style="rounded=0;whiteSpace=wrap;html=1;fontStyle=1" vertex="1" parent="1">
          <mxGeometry x="65" y="1129" width="760" height="40" as="geometry" />
        </mxCell>
        <mxCell id="-S6qMChALhRkJrn8Ejqu-26" style="edgeStyle=orthogonalEdgeStyle;rounded=0;orthogonalLoop=1;jettySize=auto;html=1;exitX=0.5;exitY=1;exitDx=0;exitDy=0;fontStyle=1" edge="1" parent="1" source="-S6qMChALhRkJrn8Ejqu-27">
          <mxGeometry relative="1" as="geometry">
            <mxPoint x="770" y="1570" as="targetPoint" />
          </mxGeometry>
        </mxCell>
        <mxCell id="-S6qMChALhRkJrn8Ejqu-27" value="检测结果" style="rounded=0;whiteSpace=wrap;html=1;fontStyle=1" vertex="1" parent="1">
          <mxGeometry x="705" y="1480" width="120" height="60" as="geometry" />
        </mxCell>
        <mxCell id="-S6qMChALhRkJrn8Ejqu-28" style="edgeStyle=orthogonalEdgeStyle;rounded=0;orthogonalLoop=1;jettySize=auto;html=1;exitX=0.5;exitY=1;exitDx=0;exitDy=0;entryX=0.5;entryY=0;entryDx=0;entryDy=0;fontStyle=1" edge="1" parent="1" source="-S6qMChALhRkJrn8Ejqu-29" target="-S6qMChALhRkJrn8Ejqu-31">
          <mxGeometry relative="1" as="geometry" />
        </mxCell>
        <mxCell id="-S6qMChALhRkJrn8Ejqu-29" value="同类别框聚类" style="rounded=0;whiteSpace=wrap;html=1;fontStyle=1" vertex="1" parent="1">
          <mxGeometry x="240" y="1665" width="590" height="60" as="geometry" />
        </mxCell>
        <mxCell id="-S6qMChALhRkJrn8Ejqu-30" style="edgeStyle=orthogonalEdgeStyle;rounded=0;orthogonalLoop=1;jettySize=auto;html=1;fontStyle=1" edge="1" parent="1" source="-S6qMChALhRkJrn8Ejqu-31" target="-S6qMChALhRkJrn8Ejqu-34">
          <mxGeometry relative="1" as="geometry" />
        </mxCell>
        <mxCell id="-S6qMChALhRkJrn8Ejqu-31" value="簇内模型计数" style="rounded=0;whiteSpace=wrap;html=1;fontStyle=1" vertex="1" parent="1">
          <mxGeometry x="240" y="1755" width="590" height="60" as="geometry" />
        </mxCell>
        <mxCell id="-S6qMChALhRkJrn8Ejqu-32" style="edgeStyle=orthogonalEdgeStyle;rounded=0;orthogonalLoop=1;jettySize=auto;html=1;exitX=0.5;exitY=1;exitDx=0;exitDy=0;entryX=0.5;entryY=0;entryDx=0;entryDy=0;fontStyle=1" edge="1" parent="1" source="-S6qMChALhRkJrn8Ejqu-34" target="-S6qMChALhRkJrn8Ejqu-61">
          <mxGeometry relative="1" as="geometry" />
        </mxCell>
        <mxCell id="-S6qMChALhRkJrn8Ejqu-33" value="是" style="edgeLabel;html=1;align=center;verticalAlign=middle;resizable=0;points=[];" vertex="1" connectable="0" parent="-S6qMChALhRkJrn8Ejqu-32">
          <mxGeometry x="-0.1245" y="4" relative="1" as="geometry">
            <mxPoint as="offset" />
          </mxGeometry>
        </mxCell>
        <mxCell id="-S6qMChALhRkJrn8Ejqu-34" value="簇内模型计数&amp;gt;=2" style="rhombus;whiteSpace=wrap;html=1;fontStyle=1" vertex="1" parent="1">
          <mxGeometry x="470" y="1855" width="130" height="80" as="geometry" />
        </mxCell>
        <mxCell id="-S6qMChALhRkJrn8Ejqu-35" value="yolo-vrd2&lt;div&gt;模型&lt;/div&gt;" style="rounded=0;whiteSpace=wrap;html=1;fillColor=#E6D0DE;fontStyle=1" vertex="1" parent="1">
          <mxGeometry x="620" y="2224" width="120" height="60" as="geometry" />
        </mxCell>
        <mxCell id="-S6qMChALhRkJrn8Ejqu-36" style="edgeStyle=orthogonalEdgeStyle;rounded=0;orthogonalLoop=1;jettySize=auto;html=1;exitX=0.5;exitY=1;exitDx=0;exitDy=0;fontStyle=1" edge="1" parent="1" source="-S6qMChALhRkJrn8Ejqu-37">
          <mxGeometry relative="1" as="geometry">
            <mxPoint x="297.47058823529414" y="1660" as="targetPoint" />
          </mxGeometry>
        </mxCell>
        <mxCell id="-S6qMChALhRkJrn8Ejqu-37" value="误检过滤模型" style="rounded=0;whiteSpace=wrap;html=1;fillColor=#E6D0DE;fontStyle=1" vertex="1" parent="1">
          <mxGeometry x="237" y="1570" width="120" height="60" as="geometry" />
        </mxCell>
        <mxCell id="-S6qMChALhRkJrn8Ejqu-38" style="edgeStyle=orthogonalEdgeStyle;rounded=0;orthogonalLoop=1;jettySize=auto;html=1;exitX=0.5;exitY=1;exitDx=0;exitDy=0;fontStyle=1" edge="1" parent="1" source="-S6qMChALhRkJrn8Ejqu-39">
          <mxGeometry relative="1" as="geometry">
            <mxPoint x="564.5294117647059" y="1660" as="targetPoint" />
          </mxGeometry>
        </mxCell>
        <mxCell id="-S6qMChALhRkJrn8Ejqu-39" value="误检过滤模型" style="rounded=0;whiteSpace=wrap;html=1;fillColor=#E6D0DE;fontStyle=1" vertex="1" parent="1">
          <mxGeometry x="505" y="1570" width="120" height="60" as="geometry" />
        </mxCell>
        <mxCell id="-S6qMChALhRkJrn8Ejqu-40" value="误检过滤模型" style="rounded=0;whiteSpace=wrap;html=1;fillColor=#E6D0DE;fontStyle=1" vertex="1" parent="1">
          <mxGeometry x="707" y="1570" width="120" height="60" as="geometry" />
        </mxCell>
        <mxCell id="-S6qMChALhRkJrn8Ejqu-41" style="edgeStyle=orthogonalEdgeStyle;rounded=0;orthogonalLoop=1;jettySize=auto;html=1;exitX=0.5;exitY=1;exitDx=0;exitDy=0;entryX=0.895;entryY=0.056;entryDx=0;entryDy=0;entryPerimeter=0;fontStyle=1" edge="1" parent="1" source="-S6qMChALhRkJrn8Ejqu-40" target="-S6qMChALhRkJrn8Ejqu-29">
          <mxGeometry relative="1" as="geometry" />
        </mxCell>
        <mxCell id="-S6qMChALhRkJrn8Ejqu-42" style="edgeStyle=orthogonalEdgeStyle;rounded=0;orthogonalLoop=1;jettySize=auto;html=1;exitX=0.75;exitY=1;exitDx=0;exitDy=0;entryX=0.5;entryY=0;entryDx=0;entryDy=0;fontStyle=1" edge="1" parent="1" source="-S6qMChALhRkJrn8Ejqu-43" target="-S6qMChALhRkJrn8Ejqu-35">
          <mxGeometry relative="1" as="geometry" />
        </mxCell>
        <mxCell id="-S6qMChALhRkJrn8Ejqu-43" value="处理车辆、二三轮目标" style="rounded=0;whiteSpace=wrap;html=1;fontStyle=1" vertex="1" parent="1">
          <mxGeometry x="239" y="2134" width="590" height="60" as="geometry" />
        </mxCell>
        <mxCell id="-S6qMChALhRkJrn8Ejqu-44" style="edgeStyle=orthogonalEdgeStyle;rounded=0;orthogonalLoop=1;jettySize=auto;html=1;exitX=0.25;exitY=1;exitDx=0;exitDy=0;entryX=0.621;entryY=0.022;entryDx=0;entryDy=0;entryPerimeter=0;fontStyle=1" edge="1" parent="1" source="-S6qMChALhRkJrn8Ejqu-43">
          <mxGeometry relative="1" as="geometry">
            <mxPoint x="384.52" y="2225.32" as="targetPoint" />
          </mxGeometry>
        </mxCell>
        <mxCell id="-S6qMChALhRkJrn8Ejqu-45" value="yolo-vrd1&lt;div&gt;模型&lt;/div&gt;" style="rounded=0;whiteSpace=wrap;html=1;fillColor=#E6D0DE;fontStyle=1" vertex="1" parent="1">
          <mxGeometry x="330" y="2224" width="120" height="60" as="geometry" />
        </mxCell>
        <mxCell id="-S6qMChALhRkJrn8Ejqu-46" style="edgeStyle=orthogonalEdgeStyle;rounded=0;orthogonalLoop=1;jettySize=auto;html=1;exitX=0.5;exitY=1;exitDx=0;exitDy=0;entryX=0.5;entryY=0;entryDx=0;entryDy=0;fontStyle=1" edge="1" parent="1" source="-S6qMChALhRkJrn8Ejqu-47" target="-S6qMChALhRkJrn8Ejqu-49">
          <mxGeometry relative="1" as="geometry" />
        </mxCell>
        <mxCell id="-S6qMChALhRkJrn8Ejqu-47" value="同类别框聚类" style="rounded=0;whiteSpace=wrap;html=1;fontStyle=1" vertex="1" parent="1">
          <mxGeometry x="235" y="2324" width="590" height="60" as="geometry" />
        </mxCell>
        <mxCell id="-S6qMChALhRkJrn8Ejqu-48" style="edgeStyle=orthogonalEdgeStyle;rounded=0;orthogonalLoop=1;jettySize=auto;html=1;exitX=0.5;exitY=1;exitDx=0;exitDy=0;fontStyle=1" edge="1" parent="1" source="-S6qMChALhRkJrn8Ejqu-49" target="-S6qMChALhRkJrn8Ejqu-55">
          <mxGeometry relative="1" as="geometry" />
        </mxCell>
        <mxCell id="-S6qMChALhRkJrn8Ejqu-49" value="簇内模型计数" style="rounded=0;whiteSpace=wrap;html=1;fontStyle=1" vertex="1" parent="1">
          <mxGeometry x="235" y="2434" width="590" height="60" as="geometry" />
        </mxCell>
        <mxCell id="-S6qMChALhRkJrn8Ejqu-50" style="edgeStyle=orthogonalEdgeStyle;rounded=0;orthogonalLoop=1;jettySize=auto;html=1;fontStyle=1" edge="1" parent="1" source="-S6qMChALhRkJrn8Ejqu-52" target="-S6qMChALhRkJrn8Ejqu-58">
          <mxGeometry relative="1" as="geometry" />
        </mxCell>
        <mxCell id="-S6qMChALhRkJrn8Ejqu-51" value="入库" style="edgeLabel;html=1;align=center;verticalAlign=middle;resizable=0;points=[];" vertex="1" connectable="0" parent="-S6qMChALhRkJrn8Ejqu-50">
          <mxGeometry x="-0.2235" y="3" relative="1" as="geometry">
            <mxPoint as="offset" />
          </mxGeometry>
        </mxCell>
        <mxCell id="-S6qMChALhRkJrn8Ejqu-52" value="剔除异常框" style="rounded=0;whiteSpace=wrap;html=1;fontStyle=1" vertex="1" parent="1">
          <mxGeometry x="235" y="2684" width="590" height="60" as="geometry" />
        </mxCell>
        <mxCell id="-S6qMChALhRkJrn8Ejqu-53" style="edgeStyle=orthogonalEdgeStyle;rounded=0;orthogonalLoop=1;jettySize=auto;html=1;exitX=0.5;exitY=1;exitDx=0;exitDy=0;entryX=0.5;entryY=0;entryDx=0;entryDy=0;fontStyle=1" edge="1" parent="1" source="-S6qMChALhRkJrn8Ejqu-55" target="-S6qMChALhRkJrn8Ejqu-52">
          <mxGeometry relative="1" as="geometry" />
        </mxCell>
        <mxCell id="-S6qMChALhRkJrn8Ejqu-54" value="是" style="edgeLabel;html=1;align=center;verticalAlign=middle;resizable=0;points=[];" vertex="1" connectable="0" parent="-S6qMChALhRkJrn8Ejqu-53">
          <mxGeometry x="-0.1725" y="4" relative="1" as="geometry">
            <mxPoint as="offset" />
          </mxGeometry>
        </mxCell>
        <mxCell id="-S6qMChALhRkJrn8Ejqu-55" value="簇内模型计数=2" style="rhombus;whiteSpace=wrap;html=1;fontStyle=1" vertex="1" parent="1">
          <mxGeometry x="465" y="2544" width="130" height="80" as="geometry" />
        </mxCell>
        <mxCell id="-S6qMChALhRkJrn8Ejqu-56" style="edgeStyle=orthogonalEdgeStyle;rounded=0;orthogonalLoop=1;jettySize=auto;html=1;exitX=0.5;exitY=1;exitDx=0;exitDy=0;entryX=0.263;entryY=0.041;entryDx=0;entryDy=0;entryPerimeter=0;fontStyle=1" edge="1" parent="1" source="-S6qMChALhRkJrn8Ejqu-45" target="-S6qMChALhRkJrn8Ejqu-47">
          <mxGeometry relative="1" as="geometry" />
        </mxCell>
        <mxCell id="-S6qMChALhRkJrn8Ejqu-57" style="edgeStyle=orthogonalEdgeStyle;rounded=0;orthogonalLoop=1;jettySize=auto;html=1;exitX=0.5;exitY=1;exitDx=0;exitDy=0;entryX=0.764;entryY=-0.037;entryDx=0;entryDy=0;entryPerimeter=0;fontStyle=1" edge="1" parent="1" source="-S6qMChALhRkJrn8Ejqu-35" target="-S6qMChALhRkJrn8Ejqu-47">
          <mxGeometry relative="1" as="geometry" />
        </mxCell>
        <mxCell id="-S6qMChALhRkJrn8Ejqu-58" value="" style="shape=cylinder3;whiteSpace=wrap;html=1;boundedLbl=1;backgroundOutline=1;size=15;fontStyle=1" vertex="1" parent="1">
          <mxGeometry x="500" y="2814" width="60" height="80" as="geometry" />
        </mxCell>
        <mxCell id="-S6qMChALhRkJrn8Ejqu-59" style="edgeStyle=orthogonalEdgeStyle;rounded=0;orthogonalLoop=1;jettySize=auto;html=1;exitX=0.5;exitY=1;exitDx=0;exitDy=0;entryX=0.5;entryY=0;entryDx=0;entryDy=0;fontStyle=1" edge="1" parent="1" source="-S6qMChALhRkJrn8Ejqu-61" target="-S6qMChALhRkJrn8Ejqu-43">
          <mxGeometry relative="1" as="geometry" />
        </mxCell>
        <mxCell id="-S6qMChALhRkJrn8Ejqu-60" style="edgeStyle=orthogonalEdgeStyle;rounded=0;orthogonalLoop=1;jettySize=auto;html=1;exitX=0;exitY=0.5;exitDx=0;exitDy=0;entryX=0;entryY=0.5;entryDx=0;entryDy=0;fontStyle=1" edge="1" parent="1" source="-S6qMChALhRkJrn8Ejqu-61" target="-S6qMChALhRkJrn8Ejqu-52">
          <mxGeometry relative="1" as="geometry" />
        </mxCell>
        <mxCell id="-S6qMChALhRkJrn8Ejqu-61" value="NMS框处理，获取最终检测框" style="rounded=0;whiteSpace=wrap;html=1;fontStyle=1" vertex="1" parent="1">
          <mxGeometry x="240" y="2030" width="590" height="60" as="geometry" />
        </mxCell>
      </root>
    </mxGraphModel>
  </diagram>
</mxfile>
